# xmcd
#
# Track frame offsets: 
#        150
#        14807
#        31707
#        46947
#        62762
#        78960
#        92655
#        110850
#        122112
#        135882
#        150177
#        163627
#
# Disc length: 2405 seconds
#
# Revision: 0
# Processed by: cddbd v1.5.1PL2 Copyright (c) Steve Scherf et al.
# Submitted via: ExactAudioCopy v0.95b4
#
DISCID=8c09630c
DTITLE=แมงปอ  ชลธิชา - สาว 16
DYEAR=2003
DGENRE=Country
TTITLE0=สาว 16
TTITLE1=น้ำตาตกที่ อบต.
TTITLE2=จะไปเป็นหมอ
TTITLE3=หลานรักน้าไม่ลง
TTITLE4=หล่อไม่เคยคอยใคร
TTITLE5=ตุ๊กติ๊ก
TTITLE6=ส่งแฟนขึ้นรถไฟ
TTITLE7=ถึงแก่ก็จะรัก
TTITLE8=หลอกน้องจะฟ้องตำรวจ
TTITLE9=รู้นะจะบอกให้
TTITLE10=อยากกอดต้องกล้า
TTITLE11=น้ำตาตกที่ อบต.  (ดนตรี)
EXTD=
EXTT0=
EXTT1=
EXTT2=
EXTT3=
EXTT4=
EXTT5=
EXTT6=
EXTT7=
EXTT8=
EXTT9=
EXTT10=
EXTT11=
PLAYORDER=
